<svg xmlns="http://www.w3.org/2000/svg" version="1.1" xmlns:xlink="http://www.w3.org/1999/xlink" xmlns:svgjs="http://svgjs.dev/svgjs" width="1000" height="844" viewBox="0 0 1000 844"><g transform="matrix(1,0,0,1,0.6128407459011669,0.2581039755352208)"><svg viewBox="0 0 387 327" data-background-color="#ffffff" preserveAspectRatio="xMidYMid meet" height="844" width="1000" xmlns="http://www.w3.org/2000/svg" xmlns:xlink="http://www.w3.org/1999/xlink"><g id="tight-bounds" transform="matrix(1,0,0,1,-0.23648643404405334,-0.10000000000002274)"><svg viewBox="0 0 387.47254603395066 327.2" height="327.2" width="387.47254603395066"><g><svg viewBox="0 0 395.52 333.99564775528796" height="327.2" width="387.47254603395066"><g transform="matrix(1,0,0,1,0,131.3706201690162)"><svg viewBox="0 0 395.52 202.62502758627176" height="202.62502758627176" width="395.52"><g id="textblocktransform"><svg viewBox="0 0 395.52 202.62502758627176" height="202.62502758627176" width="395.52" id="textblock"><g><svg viewBox="0 0 395.52 148.74128729217986" height="148.74128729217986" width="395.52"><g transform="matrix(1,0,0,1,0,0)"><svg width="395.52" viewBox="3.4112399999999994 -21.01 136.16737 51.207802919779034" height="148.74128729217986" data-palette-color="#8dbdff"><path d="M36.186-11.109v0l2.753 1.098c-0.053 0.052-2.976 4.655-8.769 13.808-5.793 9.153-9.506 14.698-11.138 16.634v0c-0.331-0.042-0.651-0.116-0.96-0.221v0c-0.871-0.297-1.811-0.741-2.821-1.333v0c0.007-2.766 0.448-8.229 1.324-16.39v0c-4.626 7.262-7.751 11.898-9.374 13.908v0c-0.331-0.042-0.654-0.117-0.969-0.225v0c-0.864-0.295-1.805-0.739-2.821-1.333v0c0.009-1.554 0.124-3.645 0.345-6.275 0.227-2.627 0.516-5.526 0.865-8.696 0.358-3.175 0.683-5.987 0.977-8.437 0.3-2.448 0.633-5.064 0.998-7.848 0.361-2.793 0.552-4.323 0.573-4.591v0l2.66 0.907c-0.714 6.138-1.606 16.062-2.678 29.771v0c1.04-1.519 2.827-4.167 5.363-7.944 2.544-3.781 4.229-6.274 5.056-7.478v0c0.243-2.136 0.719-5.876 1.429-11.219v0l2.66 0.907c-0.708 6.141-1.597 16.065-2.668 29.774v0c10.738-15.82 16.47-24.092 17.195-24.817zM48.454 22.443v0l0.091 2.215c-1.519 0.249-3.734 0.424-6.644 0.525-2.903 0.103-5.032 0.026-6.388-0.231v0c-1.389-0.263-2.511-0.95-3.366-2.061-0.86-1.119-1.414-2.445-1.66-3.977-0.24-1.531-0.348-3.021-0.325-4.469 0.023-1.448 0.162-2.849 0.418-4.205v0c1.523-8.057 5.927-11.397 13.212-10.02v0c1.742 0.329 3.17 1.176 4.282 2.54 1.114 1.357 1.503 2.923 1.168 4.698v0c-0.183 0.969-0.613 1.774-1.291 2.412-0.671 0.64-1.424 1.108-2.26 1.405-0.842 0.289-1.885 0.498-3.131 0.629-1.239 0.132-2.327 0.195-3.262 0.188-0.935-0.007-2.049-0.035-3.343-0.083-1.295-0.041-2.193-0.062-2.695-0.062v0c-0.144 0.943-0.244 1.776-0.3 2.498-0.05 0.73-0.031 1.528 0.057 2.392 0.08 0.87 0.273 1.609 0.578 2.216 0.306 0.607 0.779 1.155 1.42 1.643 0.641 0.487 1.446 0.823 2.415 1.006v0c1.159 0.219 2.597 0.383 4.314 0.49 1.717 0.107 3.248 0.173 4.594 0.197 1.352 0.025 2.058 0.043 2.116 0.054zM34.023 8.988v0c4.62-0.429 8.463-1.07 11.527-1.922v0c-0.021-1.11-0.179-1.944-0.473-2.502-0.296-0.551-0.831-0.9-1.604-1.046v0c-1.972-0.373-3.881-0.035-5.728 1.014-1.855 1.054-3.096 2.539-3.722 4.456zM75.822-4.13v0l-2.064 2.185c-2.478-2.013-4.962-3.071-7.453-3.176v0c-1.639-0.069-3.064 0.265-4.276 1.001-1.212 0.743-2.145 1.658-2.797 2.745-0.653 1.087-1.188 2.476-1.607 4.166-0.418 1.691-0.693 3.157-0.825 4.4-0.132 1.242-0.234 2.699-0.304 4.371v0c-0.069 1.639 0.156 3.513 0.674 5.623 0.518 2.11 1.459 4.095 2.823 5.954 1.37 1.866 3.003 2.839 4.901 2.918v0c2.065 0.087 5.274-0.863 9.628-2.848v0c0.4 0.644 0.916 1.7 1.549 3.168v0c-4.25 2.677-8 3.947-11.25 3.811v0c-2.098-0.088-3.99-0.808-5.674-2.16-1.685-1.352-2.985-3.031-3.902-5.039-0.917-2.007-1.599-4.097-2.049-6.271-0.449-2.167-0.633-4.217-0.552-6.149v0c0.09-2.131 0.34-4.199 0.751-6.204 0.411-2.005 1.053-4.006 1.924-6.004 0.878-1.998 2.136-3.587 3.774-4.766 1.644-1.179 3.565-1.722 5.763-1.629v0c1.898 0.08 3.85 0.489 5.854 1.227 2.01 0.745 3.715 1.637 5.112 2.677zM80.007 6.638v0l-1.218-2.403c0.767-0.932 1.776-1.716 3.027-2.354 1.258-0.631 2.524-1.009 3.798-1.133v0c5.521-0.537 8.744 3.963 9.671 13.498v0c0.127 1.307 0.241 3.242 0.343 5.804 0.102 2.562 0.214 4.48 0.338 5.754v0c-0.167 1.041-0.625 1.598-1.375 1.671v0c-0.584 0.057-1.15-0.186-1.698-0.729-0.548-0.543-0.857-1.173-0.927-1.889v0c-0.022-0.226-0.021-0.39 0.002-0.493v0c-1.834 2.154-3.895 3.342-6.184 3.565v0c-1.732 0.168-3.302-0.312-4.712-1.441-1.416-1.135-2.212-2.598-2.386-4.39v0c-0.295-3.039 0.622-5.898 2.754-8.576 2.13-2.685 4.698-4.174 7.704-4.466v0c0.133-0.013 0.263-0.016 0.391-0.008 0.134 0 0.292 0.008 0.475 0.024 0.182 0.016 0.323 0.019 0.422 0.009v0c-0.63-3.797-2.335-5.56-5.115-5.29v0c-1.632 0.159-3.402 1.108-5.31 2.847zM91.739 20.97v0c-0.155-2.289-0.29-4.021-0.405-5.195v0c-0.095-0.982-0.262-2.352-0.5-4.111v0l-0.398 0.039c-2.313 0.258-4.342 1.33-6.088 3.214-1.746 1.884-2.502 4.034-2.266 6.449v0c0.102 1.048 0.501 1.85 1.198 2.406 0.698 0.562 1.504 0.798 2.42 0.709v0c1.433-0.139 3.446-1.309 6.039-3.511zM113.776 3.569v0l-2.142 0.315c-1.07-1.649-2.407-2.299-4.009-1.948v0c-0.703 0.154-1.414 0.477-2.132 0.968-0.71 0.497-1.286 0.967-1.728 1.412-0.44 0.451-1.007 1.09-1.7 1.917v0c0.097 0.443 0.409 1.9 0.936 4.371 0.52 2.473 1.136 5.211 1.848 8.215 0.705 3.005 1.114 4.612 1.228 4.819v0c-0.082 1.028-0.537 1.632-1.364 1.813v0c-0.58 0.127-1.184 0.017-1.813-0.33-0.637-0.352-1.09-0.85-1.36-1.494v0c-1.645-10.423-2.801-18.314-3.469-23.676v0l2.273 0.005 0.842 3.194c1.839-2.354 3.56-3.706 5.162-4.057v0c1.765-0.386 3.334-0.31 4.708 0.229 1.38 0.538 2.238 1.575 2.575 3.112v0c0.105 0.482 0.154 0.86 0.145 1.135zM138.392 9.604v0l1.187 1.873c-1.191 0.976-3.021 2.235-5.49 3.778-2.462 1.541-4.344 2.54-5.646 2.996v0c-1.334 0.467-2.649 0.434-3.946-0.1-1.305-0.539-2.447-1.41-3.427-2.614-0.974-1.206-1.813-2.441-2.518-3.706-0.705-1.265-1.285-2.548-1.741-3.85v0c-2.712-7.738-0.57-12.834 6.425-15.286v0c1.674-0.587 3.333-0.568 4.979 0.056 1.644 0.618 2.764 1.779 3.362 3.484v0c0.326 0.931 0.356 1.843 0.089 2.735-0.26 0.89-0.679 1.672-1.254 2.347-0.584 0.671-1.383 1.375-2.396 2.111-1.007 0.734-1.917 1.332-2.731 1.794-0.813 0.462-1.792 0.995-2.935 1.601-1.142 0.612-1.93 1.044-2.365 1.295v0c0.347 0.889 0.677 1.659 0.991 2.313 0.322 0.657 0.737 1.338 1.245 2.043 0.504 0.713 1.041 1.256 1.61 1.629 0.569 0.373 1.252 0.61 2.051 0.712 0.799 0.102 1.663-0.011 2.594-0.337v0c1.114-0.39 2.44-0.968 3.981-1.735 1.54-0.766 2.899-1.475 4.075-2.127 1.183-0.655 1.803-0.992 1.86-1.013zM119.165 5.174v0c3.786-2.683 6.792-5.16 9.019-7.432v0c-0.573-0.951-1.127-1.594-1.661-1.929-0.532-0.329-1.169-0.364-1.912-0.103v0c-1.894 0.664-3.378 1.912-4.452 3.743-1.079 1.84-1.41 3.747-0.994 5.721z" opacity="1" transform="matrix(1,0,0,1,0,0)" fill="#8dbdff" class="wordmark-text-0" data-fill-palette-color="primary" id="text-0"></path></svg></g></svg></g><g transform="matrix(1,0,0,1,118.31980799999998,192.76504716304876)"><svg viewBox="0 0 158.88038400000002 9.859980423223005" height="9.859980423223005" width="158.88038400000002"><g transform="matrix(1,0,0,1,0,0)"><svg width="158.88038400000002" viewBox="3.3 -35.9 737.12 45.75" height="9.859980423223005" data-palette-color="#77d4fc"><path d="M23.35-8.95L23.35-8.95Q23.35-4.5 20.3-2.08 17.25 0.35 12.45 0.35L12.45 0.35Q7.15 0.35 3.45-1.8L3.45-1.8 3.45-6.15Q7.1-3.4 12.35-3.4L12.35-3.4Q15.5-3.4 17.3-4.8 19.1-6.2 19.1-8.85L19.1-8.85Q19.1-9.95 18.68-10.83 18.25-11.7 17.28-12.43 16.3-13.15 15.43-13.63 14.55-14.1 13.05-14.8L13.05-14.8Q12.75-14.95 12.15-15.2L12.15-15.2Q10-16.15 8.88-16.75 7.75-17.35 6.23-18.53 4.7-19.7 4-21.25 3.3-22.8 3.3-24.85L3.3-24.85Q3.3-29.15 6.38-31.58 9.45-34 14.1-34L14.1-34Q18.45-34 21.5-32.45L21.5-32.45 21.5-28.2Q18.45-30.2 14.2-30.2L14.2-30.2Q11.15-30.2 9.35-28.78 7.55-27.35 7.55-25.05L7.55-25.05Q7.55-23.85 8.03-22.9 8.5-21.95 9.7-21.13 10.9-20.3 11.75-19.88 12.6-19.45 14.4-18.65L14.4-18.65Q16.1-17.9 17-17.48 17.9-17.05 19.33-16.13 20.75-15.2 21.48-14.33 22.2-13.45 22.78-12.03 23.35-10.6 23.35-8.95ZM49.85-17.35L49.85 0 45.9 0 45.9-16.4Q45.9-19.15 44.47-20.65 43.05-22.15 40.75-22.15L40.75-22.15Q37.95-22.15 35.85-20 33.75-17.85 33.75-13.85L33.75-13.85 33.75 0 29.85 0 29.85-35.35 33.75-35.35 33.75-20.95Q36-25.7 41.75-25.7L41.75-25.7Q45.4-25.7 47.62-23.45 49.85-21.2 49.85-17.35L49.85-17.35ZM64.6-3.05L64.6-3.05Q67.3-3.05 68.9-4.58 70.5-6.1 70.5-8.45L70.5-8.45 70.5-11.7 66.1-11.7Q62.9-11.7 61.3-10.45 59.7-9.2 59.7-7.3 59.7-5.4 60.95-4.23 62.2-3.05 64.6-3.05ZM70.55 0L70.55-3Q68.6 0.25 63.45 0.25L63.45 0.25Q59.9 0.25 57.72-1.85 55.55-3.95 55.55-7.15L55.55-7.15Q55.55-10.8 58.32-12.83 61.1-14.85 65.9-14.85L65.9-14.85 70.5-14.85 70.5-16.15Q70.5-19.15 69.15-20.68 67.8-22.2 64.6-22.2L64.6-22.2Q60.55-22.2 57.4-20.05L57.4-20.05 57.4-24Q60.25-25.75 64.9-25.75L64.9-25.75Q74.45-25.75 74.45-16.05L74.45-16.05 74.45 0 70.55 0ZM85.34-13.85L85.34 0 81.39 0 81.44-25.35 85.34-25.35 85.34-20.9Q87.34-25.6 92.24-25.6L92.24-25.6Q93.14-25.6 93.64-25.5L93.64-25.5 93.64-21.6Q92.59-21.95 91.49-21.95L91.49-21.95Q88.84-21.95 87.09-19.5 85.34-17.05 85.34-13.85L85.34-13.85ZM116.24-5L116.24-1.3Q113.29 0.25 109.04 0.25L109.04 0.25Q103.29 0.25 99.77-3.28 96.24-6.8 96.24-12.6L96.24-12.6Q96.24-18.65 99.39-22.15 102.54-25.65 107.49-25.65L107.49-25.65Q112.24-25.65 115.04-22.6 117.84-19.55 117.84-13.95L117.84-13.95Q117.84-12.35 117.59-11L117.59-11 100.29-11Q100.74-7.25 103.14-5.25 105.54-3.25 109.44-3.25L109.44-3.25Q113.69-3.25 116.24-5L116.24-5ZM107.49-22.2L107.49-22.2Q104.64-22.2 102.64-20.15 100.64-18.1 100.29-14.3L100.29-14.3 113.89-14.3 113.89-15.3Q113.89-18.45 112.19-20.33 110.49-22.2 107.49-22.2ZM147.84-4.4L147.84-0.65Q146.19 0.25 144.14 0.25L144.14 0.25Q136.64 0.25 136.64-7.4L136.64-7.4 136.64-22.15 132.59-22.15 132.59-25.35 136.64-25.35 136.64-31.65 140.59-31.65 140.59-25.35 147.59-25.35 147.59-22.15 140.59-22.15 140.59-7.3Q140.59-3.25 144.39-3.25L144.39-3.25Q146.34-3.25 147.84-4.4L147.84-4.4ZM173.58-17.35L173.58 0 169.63 0 169.63-16.4Q169.63-19.15 168.21-20.65 166.78-22.15 164.48-22.15L164.48-22.15Q161.68-22.15 159.58-20 157.48-17.85 157.48-13.85L157.48-13.85 157.48 0 153.58 0 153.58-35.35 157.48-35.35 157.48-20.95Q159.73-25.7 165.48-25.7L165.48-25.7Q169.13-25.7 171.36-23.45 173.58-21.2 173.58-17.35L173.58-17.35ZM199.08-5L199.08-1.3Q196.13 0.25 191.88 0.25L191.88 0.25Q186.13 0.25 182.61-3.28 179.08-6.8 179.08-12.6L179.08-12.6Q179.08-18.65 182.23-22.15 185.38-25.65 190.33-25.65L190.33-25.65Q195.08-25.65 197.88-22.6 200.68-19.55 200.68-13.95L200.68-13.95Q200.68-12.35 200.43-11L200.43-11 183.13-11Q183.58-7.25 185.98-5.25 188.38-3.25 192.28-3.25L192.28-3.25Q196.53-3.25 199.08-5L199.08-5ZM190.33-22.2L190.33-22.2Q187.48-22.2 185.48-20.15 183.48-18.1 183.13-14.3L183.13-14.3 196.73-14.3 196.73-15.3Q196.73-18.45 195.03-20.33 193.33-22.2 190.33-22.2ZM236.58-3.65L236.58 0 218.18 0 218.18-33.7 222.23-33.7 222.23-3.65 236.58-3.65ZM264.12-12.6L264.12-12.6Q264.12-6.95 260.92-3.25 257.72 0.45 252.12 0.45L252.12 0.45Q246.67 0.45 243.5-3.23 240.32-6.9 240.32-12.5L240.32-12.5Q240.32-18.15 243.6-21.93 246.87-25.7 252.12-25.7L252.12-25.7Q257.87-25.7 261-22 264.12-18.3 264.12-12.6ZM244.42-12.55L244.42-12.55Q244.42-8.6 246.52-5.83 248.62-3.05 252.12-3.05L252.12-3.05Q255.92-3.05 257.97-5.78 260.02-8.5 260.02-12.55L260.02-12.55Q260.02-16.75 258.07-19.48 256.12-22.2 252.12-22.2L252.12-22.2Q248.52-22.2 246.47-19.4 244.42-16.6 244.42-12.55ZM290.27-25.35L281.22 0 276.37 0 267.52-25.35 271.62-25.35 275.12-14.65 278.82-3.1Q279.27-5.25 282.57-14.65L282.57-14.65 286.17-25.35 290.27-25.35ZM313.67-5L313.67-1.3Q310.72 0.25 306.47 0.25L306.47 0.25Q300.72 0.25 297.19-3.28 293.67-6.8 293.67-12.6L293.67-12.6Q293.67-18.65 296.82-22.15 299.97-25.65 304.92-25.65L304.92-25.65Q309.67-25.65 312.47-22.6 315.27-19.55 315.27-13.95L315.27-13.95Q315.27-12.35 315.02-11L315.02-11 297.72-11Q298.17-7.25 300.57-5.25 302.97-3.25 306.87-3.25L306.87-3.25Q311.12-3.25 313.67-5L313.67-5ZM304.92-22.2L304.92-22.2Q302.07-22.2 300.07-20.15 298.07-18.1 297.72-14.3L297.72-14.3 311.32-14.3 311.32-15.3Q311.32-18.45 309.62-20.33 307.92-22.2 304.92-22.2ZM327.12-5.05L320.67 6.15 317.22 6.15 321.87-5.05 327.12-5.05ZM363.51-8.95L363.51-8.95Q363.51-4.5 360.46-2.08 357.41 0.35 352.61 0.35L352.61 0.35Q347.31 0.35 343.61-1.8L343.61-1.8 343.61-6.15Q347.26-3.4 352.51-3.4L352.51-3.4Q355.66-3.4 357.46-4.8 359.26-6.2 359.26-8.85L359.26-8.85Q359.26-9.95 358.84-10.83 358.41-11.7 357.44-12.43 356.46-13.15 355.59-13.63 354.71-14.1 353.21-14.8L353.21-14.8Q352.91-14.95 352.31-15.2L352.31-15.2Q350.16-16.15 349.04-16.75 347.91-17.35 346.39-18.53 344.86-19.7 344.16-21.25 343.46-22.8 343.46-24.85L343.46-24.85Q343.46-29.15 346.54-31.58 349.61-34 354.26-34L354.26-34Q358.61-34 361.66-32.45L361.66-32.45 361.66-28.2Q358.61-30.2 354.36-30.2L354.36-30.2Q351.31-30.2 349.51-28.78 347.71-27.35 347.71-25.05L347.71-25.05Q347.71-23.85 348.19-22.9 348.66-21.95 349.86-21.13 351.06-20.3 351.91-19.88 352.76-19.45 354.56-18.65L354.56-18.65Q356.26-17.9 357.16-17.48 358.06-17.05 359.49-16.13 360.91-15.2 361.64-14.33 362.36-13.45 362.94-12.03 363.51-10.6 363.51-8.95ZM390.01-17.35L390.01 0 386.06 0 386.06-16.4Q386.06-19.15 384.63-20.65 383.21-22.15 380.91-22.15L380.91-22.15Q378.11-22.15 376.01-20 373.91-17.85 373.91-13.85L373.91-13.85 373.91 0 370.01 0 370.01-35.35 373.91-35.35 373.91-20.95Q376.16-25.7 381.91-25.7L381.91-25.7Q385.56-25.7 387.78-23.45 390.01-21.2 390.01-17.35L390.01-17.35ZM419.31-12.6L419.31-12.6Q419.31-6.95 416.11-3.25 412.91 0.45 407.31 0.45L407.31 0.45Q401.86 0.45 398.68-3.23 395.51-6.9 395.51-12.5L395.51-12.5Q395.51-18.15 398.78-21.93 402.06-25.7 407.31-25.7L407.31-25.7Q413.06-25.7 416.18-22 419.31-18.3 419.31-12.6ZM399.61-12.55L399.61-12.55Q399.61-8.6 401.71-5.83 403.81-3.05 407.31-3.05L407.31-3.05Q411.11-3.05 413.16-5.78 415.21-8.5 415.21-12.55L415.21-12.55Q415.21-16.75 413.26-19.48 411.31-22.2 407.31-22.2L407.31-22.2Q403.71-22.2 401.66-19.4 399.61-16.6 399.61-12.55ZM429-3.85L429 9.85 425.1 9.85 425.1-25.35 429-25.35 429-21.5Q431.65-25.75 436.85-25.75L436.85-25.75Q441.9-25.75 444.78-22.08 447.65-18.4 447.65-12.9L447.65-12.9Q447.65-7.05 444.63-3.33 441.6 0.4 436.75 0.4L436.75 0.4Q431.75 0.4 429-3.85L429-3.85ZM429-12.65L429-12.65Q429-7.8 431.25-5.5 433.5-3.2 436.25-3.2L436.25-3.2Q439.45-3.2 441.5-5.73 443.55-8.25 443.55-12.9L443.55-12.9Q443.55-17.05 441.55-19.6 439.55-22.15 436.5-22.15 433.45-22.15 431.23-19.93 429-17.7 429-12.65ZM477.3-8.3L475 0 470.15 0 462.35-25.35 466.55-25.35 469-16.95Q470.3-12.55 471.17-9.28 472.05-6 472.3-4.9L472.3-4.9 472.55-3.85Q473.3-7.05 476.2-17L476.2-17 478.6-25.35 482.8-25.35 485.25-17 489-3.8Q489.7-6.75 492.85-17L492.85-17 495.4-25.35 499.45-25.35 491.45 0 486.6 0 484.2-8.3 480.7-20.95Q479.95-17.75 477.3-8.3L477.3-8.3ZM508.5-25.35L508.5 0 504.55 0 504.55-25.35 508.5-25.35ZM508.35-35.15Q509.1-34.4 509.1-33.3 509.1-32.2 508.35-31.48 507.6-30.75 506.5-30.75 505.4-30.75 504.67-31.48 503.95-32.2 503.95-33.3 503.95-34.4 504.67-35.15 505.4-35.9 506.5-35.9 507.6-35.9 508.35-35.15ZM528.69-4.4L528.69-0.65Q527.04 0.25 524.99 0.25L524.99 0.25Q517.49 0.25 517.49-7.4L517.49-7.4 517.49-22.15 513.44-22.15 513.44-25.35 517.49-25.35 517.49-31.65 521.44-31.65 521.44-25.35 528.44-25.35 528.44-22.15 521.44-22.15 521.44-7.3Q521.44-3.25 525.24-3.25L525.24-3.25Q527.19-3.25 528.69-4.4L528.69-4.4ZM554.44-17.35L554.44 0 550.49 0 550.49-16.4Q550.49-19.15 549.07-20.65 547.64-22.15 545.34-22.15L545.34-22.15Q542.54-22.15 540.44-20 538.34-17.85 538.34-13.85L538.34-13.85 538.34 0 534.44 0 534.44-35.35 538.34-35.35 538.34-20.95Q540.59-25.7 546.34-25.7L546.34-25.7Q549.99-25.7 552.22-23.45 554.44-21.2 554.44-17.35L554.44-17.35ZM582.18-12.4L582.18-12.4 576.98-12.4 576.98 0 572.93 0 572.93-33.7 581.78-33.7Q587.63-33.7 591.01-30.68 594.38-27.65 594.38-22.85L594.38-22.85Q594.38-18.35 591.03-15.38 587.68-12.4 582.18-12.4ZM581.83-30.25L581.83-30.25 576.98-30.25 576.98-15.85 582.18-15.85Q585.98-15.85 588.13-17.82 590.28-19.8 590.28-22.85L590.28-22.85Q590.28-26.25 588.08-28.25 585.88-30.25 581.83-30.25ZM619.68-25.35L619.68 0 615.73 0 615.73-4.4Q613.73 0.3 607.78 0.3L607.78 0.3Q604.03 0.3 601.86-1.93 599.68-4.15 599.68-7.9L599.68-7.9 599.68-25.35 603.63-25.35 603.63-8.9Q603.63-6.15 605.03-4.7 606.43-3.25 608.83-3.25L608.83-3.25Q611.98-3.25 613.86-5.45 615.73-7.65 615.73-11.4L615.73-11.4 615.73-25.35 619.68-25.35ZM630.88-13.85L630.88 0 626.93 0 626.98-25.35 630.88-25.35 630.88-20.9Q632.88-25.6 637.78-25.6L637.78-25.6Q638.68-25.6 639.18-25.5L639.18-25.5 639.18-21.6Q638.13-21.95 637.03-21.95L637.03-21.95Q634.38-21.95 632.63-19.5 630.88-17.05 630.88-13.85L630.88-13.85ZM647.18-3.85L647.18 9.85 643.28 9.85 643.28-25.35 647.18-25.35 647.18-21.5Q649.83-25.75 655.03-25.75L655.03-25.75Q660.08-25.75 662.95-22.08 665.83-18.4 665.83-12.9L665.83-12.9Q665.83-7.05 662.8-3.33 659.78 0.4 654.93 0.4L654.93 0.4Q649.93 0.4 647.18-3.85L647.18-3.85ZM647.18-12.65L647.18-12.65Q647.18-7.8 649.43-5.5 651.68-3.2 654.43-3.2L654.43-3.2Q657.63-3.2 659.68-5.73 661.73-8.25 661.73-12.9L661.73-12.9Q661.73-17.05 659.73-19.6 657.73-22.15 654.68-22.15 651.63-22.15 649.4-19.93 647.18-17.7 647.18-12.65ZM693.92-12.6L693.92-12.6Q693.92-6.95 690.72-3.25 687.52 0.45 681.92 0.45L681.92 0.45Q676.47 0.45 673.3-3.23 670.12-6.9 670.12-12.5L670.12-12.5Q670.12-18.15 673.4-21.93 676.67-25.7 681.92-25.7L681.92-25.7Q687.67-25.7 690.8-22 693.92-18.3 693.92-12.6ZM674.22-12.55L674.22-12.55Q674.22-8.6 676.32-5.83 678.42-3.05 681.92-3.05L681.92-3.05Q685.72-3.05 687.77-5.78 689.82-8.5 689.82-12.55L689.82-12.55Q689.82-16.75 687.87-19.48 685.92-22.2 681.92-22.2L681.92-22.2Q678.32-22.2 676.27-19.4 674.22-16.6 674.22-12.55ZM714.97-6.75L714.97-6.75Q714.97-3.5 712.7-1.6 710.42 0.3 706.47 0.3L706.47 0.3Q701.87 0.3 699.02-1.25L699.02-1.25 699.02-5.1Q702.37-3.1 706.22-3.1L706.22-3.1Q708.52-3.1 709.72-4 710.92-4.9 710.92-6.45L710.92-6.45Q710.92-8.25 709.6-9.25 708.27-10.25 705.17-11.5L705.17-11.5Q702.32-12.6 700.6-14.25 698.87-15.9 698.87-18.7L698.87-18.7Q698.87-21.85 701.25-23.73 703.62-25.6 707.17-25.6L707.17-25.6Q711.12-25.6 713.52-24.5L713.52-24.5 713.52-20.75Q711.22-22.15 707.22-22.15L707.22-22.15Q705.22-22.15 704.05-21.23 702.87-20.3 702.87-18.85L702.87-18.85Q702.87-17.95 703.22-17.28 703.57-16.6 704.6-15.95 705.62-15.3 706.1-15.08 706.57-14.85 708.17-14.15L708.17-14.15Q711.37-12.85 713.17-11.2 714.97-9.55 714.97-6.75ZM738.82-5L738.82-1.3Q735.87 0.25 731.62 0.25L731.62 0.25Q725.87 0.25 722.34-3.28 718.82-6.8 718.82-12.6L718.82-12.6Q718.82-18.65 721.97-22.15 725.12-25.65 730.07-25.65L730.07-25.65Q734.82-25.65 737.62-22.6 740.42-19.55 740.42-13.95L740.42-13.95Q740.42-12.35 740.17-11L740.17-11 722.87-11Q723.32-7.25 725.72-5.25 728.12-3.25 732.02-3.25L732.02-3.25Q736.27-3.25 738.82-5L738.82-5ZM730.07-22.2L730.07-22.2Q727.22-22.2 725.22-20.15 723.22-18.1 722.87-14.3L722.87-14.3 736.47-14.3 736.47-15.3Q736.47-18.45 734.77-20.33 733.07-22.2 730.07-22.2Z" opacity="1" transform="matrix(1,0,0,1,0,0)" fill="#77d4fc" class="slogan-text-1" data-fill-palette-color="secondary" id="text-1"></path></svg></g></svg></g></svg></g></svg></g><g transform="matrix(1,0,0,1,75.54432,0)"><svg viewBox="0 0 244.43135999999998 122.56586819484242" height="122.56586819484242" width="244.43135999999998"><g><svg xmlns="http://www.w3.org/2000/svg" xmlns:xlink="http://www.w3.org/1999/xlink" version="1.1" x="0" y="0" viewBox="10.6 44.4 69.8 35.00000000000001" enable-background="new 0 0 100 100" xml:space="preserve" height="122.56586819484242" width="244.43135999999998" class="icon-icon-0" data-fill-palette-color="accent" id="icon-0"><path d="M75.2 68.9H58.8c-0.2 0.4-0.4 0.8-0.7 1.2-1.4 2-3.7 3.2-6.2 3.2-1.5 0-3-0.5-4.2-1.3l-9.4-6.7 0 0-3.4-2.5-0.3-0.2c-0.4-0.3-0.5-0.9-0.3-1.3 0.3-0.4 0.9-0.5 1.3-0.3l4.7 3.1 8.6 5.9c0.4 0.3 0.9 0.5 1.3 0.7 0.5 0.2 1.1 0.3 1.7 0.3 1.7 0 3.3-0.8 4.3-2.3 1.6-2.4 1-5.7-1.4-7.3L31.3 45.3c-0.9-0.6-1.9-0.9-3-0.9H10.6v17.6h10.7l23.6 16.5c0.9 0.6 1.9 0.9 3 0.9h27.2c2.9 0 5.3-2.4 5.3-5.3C80.4 71.2 78.1 68.9 75.2 68.9z" fill="#8dbdff" data-fill-palette-color="accent"></path></svg></g></svg></g><g></g></svg></g><defs></defs></svg><rect width="387.47254603395066" height="327.2" fill="none" stroke="none" visibility="hidden"></rect></g></svg></g></svg>